<svg xmlns="http://www.w3.org/2000/svg" xmlns:xlink="http://www.w3.org/1999/xlink" width="500" zoomAndPan="magnify" viewBox="0 0 375 374.999991" height="500" preserveAspectRatio="xMidYMid meet" version="1.0"><defs><g/><clipPath id="33a564212c"><rect x="0" width="133" y="0" height="186"/></clipPath></defs><g transform="matrix(1, 0, 0, 1, 114, 119)"><g clip-path="url(#33a564212c)"><g fill="#000000" fill-opacity="1"><g transform="translate(1.405888, 109.033307)"><g><path d="M 65.59375 -47.953125 C 62.5625 -41.535156 60.957031 -34.554688 60.78125 -27.015625 C 60.601562 -19.472656 62.03125 -11.257812 65.0625 -2.375 L 48.28125 -2.375 C 47.5625 -4.46875 46.894531 -6.503906 46.28125 -8.484375 C 45.664062 -10.472656 45.101562 -12.40625 44.59375 -14.28125 C 42.289062 -10.675781 39.023438 -7.679688 34.796875 -5.296875 C 30.578125 -2.921875 25.113281 -1.804688 18.40625 -1.953125 C 13.28125 -1.953125 9.398438 -3.359375 6.765625 -6.171875 C 4.128906 -8.984375 2.628906 -12.769531 2.265625 -17.53125 C 1.910156 -22.300781 2.546875 -27.585938 4.171875 -33.390625 C 5.796875 -39.203125 8.265625 -45.066406 11.578125 -50.984375 L 33.34375 -50.984375 C 31.03125 -47.160156 28.953125 -43.28125 27.109375 -39.34375 C 25.273438 -35.414062 23.976562 -31.828125 23.21875 -28.578125 C 22.457031 -25.328125 22.4375 -22.707031 23.15625 -20.71875 C 23.882812 -18.738281 25.65625 -17.75 28.46875 -17.75 C 31.9375 -17.75 34.820312 -18.6875 37.125 -20.5625 C 39.4375 -22.4375 41.0625 -24.820312 42 -27.71875 C 41.707031 -31.101562 41.671875 -34.472656 41.890625 -37.828125 C 42.109375 -41.179688 42.6875 -44.554688 43.625 -47.953125 Z M 65.59375 -47.953125 "/></g></g></g><g fill="#000000" fill-opacity="1"><g transform="translate(66.997219, 109.033307)"><g><path d="M 63.328125 -28.578125 C 63.472656 -28.003906 63.546875 -27.425781 63.546875 -26.84375 C 63.546875 -26.269531 63.546875 -25.691406 63.546875 -25.109375 C 63.546875 -20.273438 62.265625 -15.960938 59.703125 -12.171875 C 57.140625 -8.390625 53.726562 -5.394531 49.46875 -3.1875 C 45.207031 -0.988281 40.515625 0.109375 35.390625 0.109375 C 27.171875 0.109375 19.8125 -2.738281 13.3125 -8.4375 C 12.519531 -6.207031 11.925781 -3.878906 11.53125 -1.453125 C 11.132812 0.960938 10.9375 3.394531 10.9375 5.84375 C 10.9375 10.394531 11.546875 14.941406 12.765625 19.484375 C 13.992188 24.035156 15.726562 28.3125 17.96875 32.3125 C 20.207031 36.320312 22.769531 39.875 25.65625 42.96875 L -0.4375 42.96875 C -2.882812 38.28125 -4.613281 33.425781 -5.625 28.40625 C -6.632812 23.394531 -7.140625 18.472656 -7.140625 13.640625 C -7.140625 8.515625 -6.707031 3.609375 -5.84375 -1.078125 C -4.976562 -5.773438 -3.820312 -10.085938 -2.375 -14.015625 C -0.9375 -17.953125 0.578125 -21.289062 2.171875 -24.03125 C 0.722656 -27.351562 -0.46875 -30.976562 -1.40625 -34.90625 C -2.34375 -38.84375 -2.992188 -43.082031 -3.359375 -47.625 L 15.375 -46.546875 C 15.800781 -43.148438 16.71875 -39.613281 18.125 -35.9375 C 19.539062 -32.257812 21.273438 -28.832031 23.328125 -25.65625 C 25.378906 -22.476562 27.613281 -19.914062 30.03125 -17.96875 C 32.457031 -16.019531 34.929688 -15.046875 37.453125 -15.046875 C 39.984375 -15.046875 42.328125 -15.894531 44.484375 -17.59375 C 46.648438 -19.289062 47.734375 -21.472656 47.734375 -24.140625 C 47.734375 -26.585938 46.957031 -28.550781 45.40625 -30.03125 C 43.851562 -31.519531 41.816406 -32.265625 39.296875 -32.265625 C 37.203125 -32.265625 34.945312 -31.738281 32.53125 -30.6875 C 30.113281 -29.644531 27.859375 -28.148438 25.765625 -26.203125 C 24.390625 -28.148438 23.160156 -30.332031 22.078125 -32.75 C 20.992188 -35.164062 20.164062 -37.742188 19.59375 -40.484375 C 22.769531 -42.503906 26.125 -44.160156 29.65625 -45.453125 C 33.195312 -46.753906 36.625 -47.40625 39.9375 -47.40625 C 43.976562 -47.40625 47.660156 -46.59375 50.984375 -44.96875 C 54.304688 -43.351562 57.066406 -41.117188 59.265625 -38.265625 C 61.460938 -35.410156 62.816406 -32.179688 63.328125 -28.578125 Z M 63.328125 -28.578125 "/></g></g></g></g></g><g fill="#000000" fill-opacity="1"><g transform="translate(50.052913, 169.038644)"><g><path d="M 65.8125 -85.140625 C 69.832031 -79.910156 72.585938 -74.519531 74.078125 -68.96875 C 75.578125 -63.414062 76.164062 -57.929688 75.84375 -52.515625 C 75.53125 -47.097656 74.578125 -41.929688 72.984375 -37.015625 C 71.390625 -32.109375 69.441406 -27.691406 67.140625 -23.765625 C 64.847656 -19.847656 62.554688 -16.613281 60.265625 -14.0625 C 60.960938 -11.894531 61.488281 -9.613281 61.84375 -7.21875 C 62.195312 -4.832031 62.375 -2.425781 62.375 0 L 43.421875 0 C 43.554688 -3.25 43.207031 -6.515625 42.375 -9.796875 C 41.539062 -13.085938 40.359375 -16.101562 38.828125 -18.84375 C 37.304688 -21.582031 35.457031 -23.796875 33.28125 -25.484375 C 31.113281 -27.179688 28.722656 -28.03125 26.109375 -28.03125 C 23.179688 -28.03125 20.835938 -27.34375 19.078125 -25.96875 C 17.328125 -24.59375 16.453125 -22.789062 16.453125 -20.5625 C 16.453125 -18.394531 17.328125 -16.609375 19.078125 -15.203125 C 20.835938 -13.804688 23.179688 -13.109375 26.109375 -13.109375 C 29.941406 -13.109375 33.707031 -14.160156 37.40625 -16.265625 C 38.363281 -14.347656 39.175781 -12.238281 39.84375 -9.9375 C 40.507812 -7.644531 40.9375 -5.257812 41.125 -2.78125 C 35.382812 -0.738281 30.253906 0.28125 25.734375 0.28125 C 20.953125 0.28125 16.691406 -0.6875 12.953125 -2.625 C 9.222656 -4.570312 6.289062 -7.125 4.15625 -10.28125 C 2.019531 -13.4375 0.953125 -16.863281 0.953125 -20.5625 C 0.953125 -24.257812 2.019531 -27.6875 4.15625 -30.84375 C 6.289062 -34 9.222656 -36.535156 12.953125 -38.453125 C 16.691406 -40.367188 20.953125 -41.328125 25.734375 -41.328125 C 31.085938 -41.328125 35.976562 -40.238281 40.40625 -38.0625 C 44.84375 -35.894531 48.65625 -32.960938 51.84375 -29.265625 C 54.144531 -32.835938 55.675781 -36.710938 56.4375 -40.890625 C 57.195312 -45.066406 57.335938 -49.289062 56.859375 -53.5625 C 56.390625 -57.832031 55.359375 -61.976562 53.765625 -66 C 52.171875 -70.019531 50.113281 -73.6875 47.59375 -77 C 45.070312 -80.320312 42.1875 -83.066406 38.9375 -85.234375 Z M 65.8125 -85.140625 "/></g></g></g><g fill="#000000" fill-opacity="1"><g transform="translate(119.88478, 169.038644)"><g><path d="M 17.59375 -50.5 C 15.625 -50.5 13.820312 -50.992188 12.1875 -51.984375 C 10.5625 -52.972656 9.253906 -54.296875 8.265625 -55.953125 C 7.285156 -57.617188 6.796875 -59.4375 6.796875 -61.40625 C 6.796875 -63.445312 7.285156 -65.28125 8.265625 -66.90625 C 9.253906 -68.53125 10.5625 -69.835938 12.1875 -70.828125 C 13.820312 -71.816406 15.625 -72.3125 17.59375 -72.3125 C 19.632812 -72.3125 21.46875 -71.816406 23.09375 -70.828125 C 24.726562 -69.835938 26.035156 -68.53125 27.015625 -66.90625 C 28.003906 -65.28125 28.5 -63.445312 28.5 -61.40625 C 28.5 -59.4375 28.003906 -57.617188 27.015625 -55.953125 C 26.035156 -54.296875 24.726562 -52.972656 23.09375 -51.984375 C 21.46875 -50.992188 19.632812 -50.5 17.59375 -50.5 Z M 4.6875 -5.9375 C 3.789062 -11.800781 3.390625 -17.710938 3.484375 -23.671875 C 3.585938 -29.640625 4.019531 -36.222656 4.78125 -43.421875 L 19.609375 -43.421875 C 18.910156 -36.085938 18.910156 -29.375 19.609375 -23.28125 C 20.304688 -17.195312 21.519531 -11.414062 23.25 -5.9375 Z M 4.6875 -5.9375 "/></g></g></g><g fill="#000000" fill-opacity="1"><g transform="translate(144.086778, 169.038644)"><g><path d="M 20.1875 -38.265625 C 19.164062 -35.523438 18.570312 -32.539062 18.40625 -29.3125 C 18.25 -26.09375 18.488281 -22.96875 19.125 -19.9375 C 19.769531 -16.914062 20.773438 -14.269531 22.140625 -12 C 23.515625 -9.738281 25.191406 -8.191406 27.171875 -7.359375 C 29.398438 -9.023438 31.101562 -11.4375 32.28125 -14.59375 C 33.457031 -17.75 34.15625 -21.363281 34.375 -25.4375 C 34.601562 -29.519531 34.382812 -33.726562 33.71875 -38.0625 C 33.050781 -42.40625 31.9375 -46.582031 30.375 -50.59375 C 28.8125 -54.613281 26.847656 -58.15625 24.484375 -61.21875 C 28.054688 -62.363281 32.007812 -63.925781 36.34375 -65.90625 C 40.6875 -67.882812 45.914062 -70.273438 52.03125 -73.078125 L 55.296875 -54.53125 L 45.8125 -52.125 C 47.476562 -47.476562 48.597656 -42.570312 49.171875 -37.40625 C 49.742188 -32.238281 49.757812 -27.148438 49.21875 -22.140625 C 48.675781 -17.140625 47.554688 -12.535156 45.859375 -8.328125 C 44.171875 -4.117188 41.90625 -0.613281 39.0625 2.1875 C 36.226562 5 32.835938 6.757812 28.890625 7.46875 C 23.972656 6.375 19.601562 4.410156 15.78125 1.578125 C 11.957031 -1.253906 8.847656 -4.757812 6.453125 -8.9375 C 4.066406 -13.113281 2.582031 -17.707031 2 -22.71875 C 1.425781 -27.726562 1.90625 -32.910156 3.4375 -38.265625 Z M 20.1875 -38.265625 "/></g></g></g><g fill="#000000" fill-opacity="1"><g transform="translate(196.604169, 169.038644)"><g><path d="M 20.1875 -38.265625 C 19.164062 -35.523438 18.570312 -32.539062 18.40625 -29.3125 C 18.25 -26.09375 18.488281 -22.96875 19.125 -19.9375 C 19.769531 -16.914062 20.773438 -14.269531 22.140625 -12 C 23.515625 -9.738281 25.191406 -8.191406 27.171875 -7.359375 C 29.398438 -9.023438 31.101562 -11.4375 32.28125 -14.59375 C 33.457031 -17.75 34.15625 -21.363281 34.375 -25.4375 C 34.601562 -29.519531 34.382812 -33.726562 33.71875 -38.0625 C 33.050781 -42.40625 31.9375 -46.582031 30.375 -50.59375 C 28.8125 -54.613281 26.847656 -58.15625 24.484375 -61.21875 C 28.054688 -62.363281 32.007812 -63.925781 36.34375 -65.90625 C 40.6875 -67.882812 45.914062 -70.273438 52.03125 -73.078125 L 55.296875 -54.53125 L 45.8125 -52.125 C 47.476562 -47.476562 48.597656 -42.570312 49.171875 -37.40625 C 49.742188 -32.238281 49.757812 -27.148438 49.21875 -22.140625 C 48.675781 -17.140625 47.554688 -12.535156 45.859375 -8.328125 C 44.171875 -4.117188 41.90625 -0.613281 39.0625 2.1875 C 36.226562 5 32.835938 6.757812 28.890625 7.46875 C 23.972656 6.375 19.601562 4.410156 15.78125 1.578125 C 11.957031 -1.253906 8.847656 -4.757812 6.453125 -8.9375 C 4.066406 -13.113281 2.582031 -17.707031 2 -22.71875 C 1.425781 -27.726562 1.90625 -32.910156 3.4375 -38.265625 Z M 20.1875 -38.265625 "/></g></g></g><g fill="#000000" fill-opacity="1"><g transform="translate(249.121549, 169.038644)"><g><path d="M 46.6875 -48.015625 C 50.125 -46.171875 53.050781 -43.570312 55.46875 -40.21875 C 57.894531 -36.875 59.757812 -33.191406 61.0625 -29.171875 C 62.375 -25.160156 63.03125 -21.113281 63.03125 -17.03125 C 63.03125 -9.5 62.359375 -2.46875 61.015625 4.0625 C 59.679688 10.601562 57.546875 16.34375 54.609375 21.28125 C 51.679688 26.226562 47.828125 30.085938 43.046875 32.859375 C 38.265625 35.628906 32.429688 37.015625 25.546875 37.015625 C 19.484375 37.015625 14.09375 35.976562 9.375 33.90625 C 4.65625 31.832031 0.957031 28.976562 -1.71875 25.34375 C -4.394531 21.707031 -5.734375 17.628906 -5.734375 13.109375 C -5.734375 8.128906 -4.710938 4 -2.671875 0.71875 C -0.640625 -2.5625 2.128906 -5.144531 5.640625 -7.03125 C 9.148438 -8.914062 13.179688 -10.191406 17.734375 -10.859375 C 22.296875 -11.523438 27.144531 -11.726562 32.28125 -11.46875 C 37.414062 -11.21875 42.566406 -10.613281 47.734375 -9.65625 C 47.859375 -10.738281 47.953125 -11.820312 48.015625 -12.90625 C 48.078125 -14 48.140625 -15.148438 48.203125 -16.359375 C 48.273438 -18.335938 48.148438 -20.34375 47.828125 -22.375 C 47.503906 -24.414062 47.054688 -26.394531 46.484375 -28.3125 C 44.828125 -26.019531 42.5625 -23.914062 39.6875 -22 C 36.820312 -20.082031 33.441406 -18.566406 29.546875 -17.453125 C 25.660156 -16.335938 21.359375 -15.8125 16.640625 -15.875 C 12.117188 -15.875 8.515625 -17.117188 5.828125 -19.609375 C 3.148438 -22.097656 1.394531 -25.429688 0.5625 -29.609375 C -0.257812 -33.785156 -0.144531 -38.4375 0.90625 -43.5625 C 1.957031 -48.695312 3.953125 -53.878906 6.890625 -59.109375 L 26.109375 -59.109375 C 24.066406 -55.734375 22.234375 -52.320312 20.609375 -48.875 C 18.984375 -45.4375 17.816406 -42.28125 17.109375 -39.40625 C 16.410156 -36.539062 16.394531 -34.226562 17.0625 -32.46875 C 17.738281 -30.71875 19.320312 -29.84375 21.8125 -29.84375 C 25.632812 -29.84375 28.707031 -30.492188 31.03125 -31.796875 C 33.363281 -33.109375 34.832031 -34.878906 35.4375 -37.109375 C 36.039062 -39.347656 35.675781 -41.804688 34.34375 -44.484375 L 34.71875 -44.484375 Z M 65.234375 -4.6875 C 69.953125 -3.03125 74.796875 -0.847656 79.765625 1.859375 C 84.742188 4.578125 89.816406 7.816406 94.984375 11.578125 L 94.984375 37.78125 C 88.097656 31.53125 81.957031 26.285156 76.5625 22.046875 C 71.175781 17.804688 66.222656 14.347656 61.703125 11.671875 C 62.585938 9.117188 63.316406 6.488281 63.890625 3.78125 C 64.472656 1.070312 64.921875 -1.75 65.234375 -4.6875 Z M 25.640625 21.8125 C 30.359375 21.8125 34.242188 20.164062 37.296875 16.875 C 40.359375 13.59375 42.785156 9.398438 44.578125 4.296875 C 41.003906 3.347656 37.253906 2.679688 33.328125 2.296875 C 29.410156 1.910156 25.742188 1.925781 22.328125 2.34375 C 18.921875 2.757812 16.148438 3.734375 14.015625 5.265625 C 11.878906 6.796875 10.8125 8.992188 10.8125 11.859375 C 10.8125 14.734375 12.101562 17.109375 14.6875 18.984375 C 17.269531 20.867188 20.921875 21.8125 25.640625 21.8125 Z M 25.640625 21.8125 "/></g></g></g></svg>